<svg width="1653" height="993" xmlns="http://www.w3.org/2000/svg" xmlns:xlink="http://www.w3.org/1999/xlink" xml:space="preserve" overflow="hidden"><g transform="translate(1 1)"><rect x="0" y="0" width="1650" height="990" fill="#FFFFFF"/><g><path d="M653.155 251.488C843.168 251.488 997.203 405.523 997.203 595.535 997.203 732.554 915.9 856.511 790.224 911.1L653.155 595.535Z" stroke="#FFFFFF" stroke-width="6.875" stroke-linejoin="round" stroke-miterlimit="10" fill="#104862" fill-rule="evenodd"/></g><g><path d="M790.224 911.1C615.943 986.801 413.292 906.886 337.591 732.604 309.284 667.436 301.848 595.102 316.304 525.537L653.155 595.535Z" stroke="#FFFFFF" stroke-width="6.875" stroke-linejoin="round" stroke-miterlimit="10" fill="#FF0000" fill-rule="evenodd"/></g><g><path d="M316.304 525.537C342.454 399.695 436.569 298.923 560.333 264.246L653.155 595.535Z" stroke="#FFFFFF" stroke-width="6.875" stroke-linejoin="round" stroke-miterlimit="10" fill="#FFFF00" fill-rule="evenodd"/></g><g><path d="M560.332 264.246C590.547 255.78 621.777 251.487 653.155 251.487L653.155 595.535Z" stroke="#FFFFFF" stroke-width="6.875" stroke-linejoin="round" stroke-miterlimit="10" fill="#3B7D23" fill-rule="evenodd"/></g><g><text font-family="Gill Sans Ultra Bold Condensed,Gill Sans Ultra Bold Condensed_MSFontService,sans-serif" font-weight="800" font-stretch="condensed" font-size="64" transform="matrix(1 0 0 1 211.75 98)">¿Cómo te sientes acerca de los exámenes de </text></g><g><text font-family="Gill Sans Ultra Bold Condensed,Gill Sans Ultra Bold Condensed_MSFontService,sans-serif" font-weight="800" font-stretch="condensed" font-size="64" transform="matrix(1 0 0 1 546.425 178)">la próxima semana?</text></g><g><rect x="1327.5" y="468.5" width="23" height="22" stroke="#FFFFFF" stroke-width="6.875" stroke-linejoin="round" stroke-miterlimit="10" fill="#104862"/></g><g><text fill="#595959" font-family="Aptos,Aptos_MSFontService,sans-serif" font-weight="400" font-size="41" transform="matrix(1 0 0 1 1360.22 491)">Muy nervioso</text></g><g><rect x="1327.5" y="545.5" width="23" height="23.0001" stroke="#FFFFFF" stroke-width="6.875" stroke-linejoin="round" stroke-miterlimit="10" fill="#FF0000"/></g><g><text fill="#595959" font-family="Aptos,Aptos_MSFontService,sans-serif" font-weight="400" font-size="41" transform="matrix(1 0 0 1 1360.22 568)">Ansioso</text></g><g><rect x="1327.5" y="622.5" width="23" height="23.0001" stroke="#FFFFFF" stroke-width="6.875" stroke-linejoin="round" stroke-miterlimit="10" fill="#FFFF00"/></g><g><text fill="#595959" font-family="Aptos,Aptos_MSFontService,sans-serif" font-weight="400" font-size="41" transform="matrix(1 0 0 1 1360.22 646)">Tranquilito</text></g><g><rect x="1327.5" y="700.5" width="23" height="22" stroke="#FFFFFF" stroke-width="6.875" stroke-linejoin="round" stroke-miterlimit="10" fill="#3B7D23"/></g><g><text fill="#595959" font-family="Aptos,Aptos_MSFontService,sans-serif" font-weight="400" font-size="41" transform="matrix(1 0 0 1 1360.22 723)">Emocionado</text></g><rect x="0.499836" y="0.499836" width="1650" height="990" stroke="#D9D9D9" stroke-width="3.4375" stroke-linejoin="round" stroke-miterlimit="10" fill="none"/></g></svg>